<svg xmlns="http://www.w3.org/2000/svg" viewBox="0 0 640.5 158.6"><g fill="#46B2E9"><path d="M 28.5 0.0 L 28.5 101.8 C 28.5 117.6 39.0 128.7 53.9 128.7 C 67.5 128.7 77.9 117.6 77.9 101.8 C 77.9 86.0 67.5 74.8 53.0 74.8 C 46.8 74.8 42.1 76.2 37.6 78.2 L 37.6 48.1 C 43.2 46.6 49.0 45.0 54.8 45.0 C 85.3 45.0 106.5 72.4 106.5 101.6 C 106.5 133.2 84.6 158.6 53.4 158.6 C 21.8 158.6 0.0 133.2 0.0 101.6 L 0.0 0.0 Z M 28.5 0.0"/><path d="M 232.1 110.0 C 226.7 139.2 204.2 158.6 173.7 158.6 C 140.1 158.6 118.9 132.7 118.9 101.8 C 118.9 70.8 140.1 45.0 173.7 45.0 C 202.7 45.0 219.2 60.6 226.3 77.1 L 171.3 118.3 L 157.5 100.2 L 185.7 78.4 C 182.9 75.1 177.7 73.5 171.7 73.5 C 157.7 73.5 147.4 86.2 147.4 101.8 C 147.4 115.1 157.9 130.1 174.8 130.1 C 189.1 130.1 200.9 121.4 203.3 106.9 Z M 232.1 110.0"/><path d="M 247.9 0.0 L 276.4 0.0 L 276.4 155.9 L 247.9 155.9 Z M 247.9 0.0"/><path d="M 297.3 47.7 L 325.8 47.7 L 325.8 155.9 L 297.3 155.9 Z M 297.3 47.7"/><path d="M 347.2 155.9 L 347.2 81.1 C 347.2 57.5 365.5 45.0 392.0 45.0 C 418.5 45.0 436.7 57.5 436.7 81.1 L 436.7 155.9 L 408.2 155.9 L 408.2 90.9 C 408.2 79.7 402.4 73.5 392.0 73.5 C 381.5 73.5 375.7 79.7 375.7 90.9 L 375.7 155.9 Z M 347.2 155.9"/><path d="M 487.1 47.7 L 487.1 112.7 C 487.1 123.8 492.9 130.1 503.3 130.1 C 513.8 130.1 519.6 123.8 519.6 112.7 L 519.6 47.7 L 548.1 47.7 L 548.1 122.5 C 548.1 146.1 529.8 158.6 503.3 158.6 C 476.8 158.6 458.6 146.1 458.6 122.5 L 458.6 47.7 Z M 487.1 47.7"/><path d="M 564.1 129.2 L 600.9 129.2 C 606.2 129.2 608.9 126.5 608.9 123.2 C 608.9 109.6 565.3 106.5 565.3 79.5 C 565.3 56.1 581.7 47.7 600.4 47.7 L 634.7 47.7 L 634.7 74.4 L 601.8 74.4 C 598.2 74.4 594.7 74.8 594.7 79.3 C 594.7 89.1 640.5 94.4 640.5 122.9 C 640.5 144.5 624.5 155.9 604.0 155.9 L 564.1 155.9 Z M 564.1 129.2"/><path d="M 311.6 29.3 C 304.3 29.3 298.5 23.7 298.5 16.7 C 298.5 9.8 304.3 4.2 311.6 4.2 C 318.8 4.2 324.7 9.8 324.7 16.7 C 324.7 23.7 318.8 29.3 311.6 29.3 M 311.6 0.0 C 301.9 0.0 294.1 7.5 294.1 16.7 C 294.1 26.0 301.9 33.5 311.6 33.5 C 321.3 33.5 329.1 26.0 329.1 16.7 C 329.1 7.5 321.3 0.0 311.6 0.0"/><path d="M 308.1 16.1 L 311.3 16.1 C 312.2 16.1 313.0 15.9 313.5 15.4 C 314.1 14.9 314.3 14.2 314.3 13.4 C 314.3 12.5 314.1 11.8 313.6 11.3 C 313.1 10.8 312.3 10.6 311.2 10.6 L 308.1 10.6 Z M 311.2 19.2 L 308.1 19.2 L 308.1 26.0 L 304.2 26.0 L 304.2 7.5 L 311.2 7.5 C 313.5 7.5 315.2 8.0 316.4 9.0 C 317.7 9.9 318.3 11.3 318.3 13.1 C 318.3 14.3 318.0 15.4 317.4 16.2 C 316.9 17.1 316.0 17.8 314.9 18.2 L 319.0 25.8 L 319.0 26.0 L 314.8 26.0 Z M 311.2 19.2"/></g></svg>